<mxfile host="app.diagrams.net" modified="2021-08-18T06:53:18.079Z" agent="5.0 (Macintosh)" etag="-RO1SsHaoTlWCgiXxYe4" version="14.9.7" type="github" pages="3">
  <diagram id="VXqrS5NhDdbnTz_sFyGP" name="Page-1">
    <mxGraphModel dx="946" dy="612" grid="1" gridSize="10" guides="1" tooltips="1" connect="1" arrows="1" fold="1" page="1" pageScale="1" pageWidth="850" pageHeight="1100" math="0" shadow="0">
      <root>
        <mxCell id="0" />
        <mxCell id="1" parent="0" />
        <mxCell id="R7maWW98rSnrO7kK5M2s-1" style="edgeStyle=orthogonalEdgeStyle;rounded=0;orthogonalLoop=1;jettySize=auto;html=1;exitX=0.5;exitY=1;exitDx=0;exitDy=0;entryX=1;entryY=1;entryDx=0;entryDy=0;" parent="1" source="R7maWW98rSnrO7kK5M2s-2" target="R7maWW98rSnrO7kK5M2s-14" edge="1">
          <mxGeometry relative="1" as="geometry">
            <Array as="points">
              <mxPoint x="730" y="500" />
              <mxPoint x="581" y="500" />
            </Array>
          </mxGeometry>
        </mxCell>
        <mxCell id="R7maWW98rSnrO7kK5M2s-2" value="addProfit (profit)" style="rounded=1;whiteSpace=wrap;html=1;fillColor=#dae8fc;strokeColor=#6c8ebf;" parent="1" vertex="1">
          <mxGeometry x="670" y="410" width="120" height="60" as="geometry" />
        </mxCell>
        <mxCell id="R7maWW98rSnrO7kK5M2s-3" value="investExport" style="rounded=1;whiteSpace=wrap;html=1;fillColor=#fff2cc;strokeColor=#d6b656;" parent="1" vertex="1">
          <mxGeometry x="380" y="160" width="120" height="60" as="geometry" />
        </mxCell>
        <mxCell id="R7maWW98rSnrO7kK5M2s-4" style="edgeStyle=orthogonalEdgeStyle;rounded=0;orthogonalLoop=1;jettySize=auto;html=1;exitX=1;exitY=0.5;exitDx=0;exitDy=0;entryX=0;entryY=0;entryDx=0;entryDy=0;" parent="1" source="R7maWW98rSnrO7kK5M2s-5" target="R7maWW98rSnrO7kK5M2s-14" edge="1">
          <mxGeometry relative="1" as="geometry">
            <Array as="points">
              <mxPoint x="299" y="310" />
            </Array>
          </mxGeometry>
        </mxCell>
        <mxCell id="R7maWW98rSnrO7kK5M2s-5" value="withdraw" style="rounded=1;whiteSpace=wrap;html=1;fillColor=#dae8fc;strokeColor=#6c8ebf;" parent="1" vertex="1">
          <mxGeometry x="170" y="280" width="120" height="60" as="geometry" />
        </mxCell>
        <mxCell id="R7maWW98rSnrO7kK5M2s-6" style="edgeStyle=orthogonalEdgeStyle;rounded=0;orthogonalLoop=1;jettySize=auto;html=1;exitX=0;exitY=0.5;exitDx=0;exitDy=0;entryX=0.5;entryY=0;entryDx=0;entryDy=0;" parent="1" source="R7maWW98rSnrO7kK5M2s-7" target="R7maWW98rSnrO7kK5M2s-22" edge="1">
          <mxGeometry relative="1" as="geometry" />
        </mxCell>
        <mxCell id="R7maWW98rSnrO7kK5M2s-7" value="&lt;div&gt;claim&lt;/div&gt;" style="rounded=1;whiteSpace=wrap;html=1;fillColor=#fff2cc;strokeColor=#d6b656;" parent="1" vertex="1">
          <mxGeometry x="170" y="160" width="120" height="60" as="geometry" />
        </mxCell>
        <mxCell id="R7maWW98rSnrO7kK5M2s-8" style="edgeStyle=orthogonalEdgeStyle;rounded=0;orthogonalLoop=1;jettySize=auto;html=1;exitX=0;exitY=0.5;exitDx=0;exitDy=0;entryX=0.5;entryY=0;entryDx=0;entryDy=0;" parent="1" source="R7maWW98rSnrO7kK5M2s-9" target="R7maWW98rSnrO7kK5M2s-7" edge="1">
          <mxGeometry relative="1" as="geometry" />
        </mxCell>
        <mxCell id="R7maWW98rSnrO7kK5M2s-9" value="&lt;div&gt;User 1 &lt;br&gt;&lt;/div&gt;&lt;div&gt;(investedAmount, claimedAmount,&lt;/div&gt;&lt;div&gt;investSessionCount)&lt;br&gt;&lt;/div&gt;" style="ellipse;whiteSpace=wrap;html=1;fillColor=#fff2cc;strokeColor=#d6b656;" parent="1" vertex="1">
          <mxGeometry x="360" y="40" width="160" height="80" as="geometry" />
        </mxCell>
        <mxCell id="R7maWW98rSnrO7kK5M2s-10" value="" style="endArrow=classic;html=1;" parent="1" edge="1">
          <mxGeometry width="50" height="50" relative="1" as="geometry">
            <mxPoint x="439.5" y="120" as="sourcePoint" />
            <mxPoint x="440" y="160" as="targetPoint" />
          </mxGeometry>
        </mxCell>
        <mxCell id="R7maWW98rSnrO7kK5M2s-11" value="investedAmount" style="text;html=1;strokeColor=none;fillColor=none;align=center;verticalAlign=middle;whiteSpace=wrap;rounded=0;" parent="1" vertex="1">
          <mxGeometry x="450" y="360" width="90" height="20" as="geometry" />
        </mxCell>
        <mxCell id="R7maWW98rSnrO7kK5M2s-12" style="edgeStyle=orthogonalEdgeStyle;rounded=0;orthogonalLoop=1;jettySize=auto;html=1;exitX=1;exitY=0;exitDx=0;exitDy=0;entryX=0.5;entryY=0;entryDx=0;entryDy=0;" parent="1" source="R7maWW98rSnrO7kK5M2s-14" target="R7maWW98rSnrO7kK5M2s-2" edge="1">
          <mxGeometry relative="1" as="geometry">
            <Array as="points">
              <mxPoint x="581" y="380" />
              <mxPoint x="730" y="380" />
            </Array>
          </mxGeometry>
        </mxCell>
        <mxCell id="R7maWW98rSnrO7kK5M2s-13" style="edgeStyle=orthogonalEdgeStyle;rounded=0;orthogonalLoop=1;jettySize=auto;html=1;exitX=0;exitY=0.5;exitDx=0;exitDy=0;entryX=1;entryY=0.5;entryDx=0;entryDy=0;" parent="1" source="R7maWW98rSnrO7kK5M2s-14" target="R7maWW98rSnrO7kK5M2s-24" edge="1">
          <mxGeometry relative="1" as="geometry" />
        </mxCell>
        <mxCell id="R7maWW98rSnrO7kK5M2s-14" value="&lt;div&gt;ProfitPool (totalAmount, investors: User[], &lt;br&gt;&lt;/div&gt;&lt;div&gt;sessionCount, maxClaimableSession)&lt;/div&gt;" style="ellipse;whiteSpace=wrap;html=1;fillColor=#dae8fc;strokeColor=#6c8ebf;" parent="1" vertex="1">
          <mxGeometry x="240" y="400" width="400" height="80" as="geometry" />
        </mxCell>
        <mxCell id="R7maWW98rSnrO7kK5M2s-15" value="investCashIn" style="rounded=1;whiteSpace=wrap;html=1;fillColor=#dae8fc;strokeColor=#6c8ebf;" parent="1" vertex="1">
          <mxGeometry x="380" y="280" width="120" height="60" as="geometry" />
        </mxCell>
        <mxCell id="R7maWW98rSnrO7kK5M2s-16" value="" style="endArrow=classic;html=1;entryX=0.5;entryY=0;entryDx=0;entryDy=0;" parent="1" target="R7maWW98rSnrO7kK5M2s-14" edge="1">
          <mxGeometry width="50" height="50" relative="1" as="geometry">
            <mxPoint x="439.5" y="340" as="sourcePoint" />
            <mxPoint x="440" y="390" as="targetPoint" />
          </mxGeometry>
        </mxCell>
        <mxCell id="R7maWW98rSnrO7kK5M2s-17" value="" style="endArrow=classic;html=1;entryX=0.5;entryY=0;entryDx=0;entryDy=0;" parent="1" target="R7maWW98rSnrO7kK5M2s-15" edge="1">
          <mxGeometry width="50" height="50" relative="1" as="geometry">
            <mxPoint x="439.5" y="220" as="sourcePoint" />
            <mxPoint x="440" y="260" as="targetPoint" />
          </mxGeometry>
        </mxCell>
        <mxCell id="R7maWW98rSnrO7kK5M2s-18" value="investedAmount" style="text;html=1;strokeColor=none;fillColor=none;align=center;verticalAlign=middle;whiteSpace=wrap;rounded=0;" parent="1" vertex="1">
          <mxGeometry x="450" y="130" width="90" height="20" as="geometry" />
        </mxCell>
        <mxCell id="R7maWW98rSnrO7kK5M2s-19" value="investedAmount" style="text;html=1;strokeColor=none;fillColor=none;align=center;verticalAlign=middle;whiteSpace=wrap;rounded=0;" parent="1" vertex="1">
          <mxGeometry x="450" y="240" width="90" height="20" as="geometry" />
        </mxCell>
        <mxCell id="R7maWW98rSnrO7kK5M2s-20" value="investedSessionCount" style="text;html=1;strokeColor=none;fillColor=none;align=center;verticalAlign=middle;whiteSpace=wrap;rounded=0;" parent="1" vertex="1">
          <mxGeometry x="120" y="100" width="90" height="20" as="geometry" />
        </mxCell>
        <mxCell id="R7maWW98rSnrO7kK5M2s-21" style="edgeStyle=orthogonalEdgeStyle;rounded=0;orthogonalLoop=1;jettySize=auto;html=1;exitX=0.5;exitY=1;exitDx=0;exitDy=0;entryX=0;entryY=0.5;entryDx=0;entryDy=0;" parent="1" source="R7maWW98rSnrO7kK5M2s-22" target="R7maWW98rSnrO7kK5M2s-5" edge="1">
          <mxGeometry relative="1" as="geometry" />
        </mxCell>
        <mxCell id="R7maWW98rSnrO7kK5M2s-22" value="if((investedSessionCount - sessionCount ) &amp;gt; maxClimableSession))" style="text;html=1;strokeColor=none;fillColor=none;align=center;verticalAlign=middle;whiteSpace=wrap;rounded=0;" parent="1" vertex="1">
          <mxGeometry x="30" y="230" width="210" height="40" as="geometry" />
        </mxCell>
        <mxCell id="R7maWW98rSnrO7kK5M2s-23" value="userId" style="text;html=1;strokeColor=none;fillColor=none;align=center;verticalAlign=middle;whiteSpace=wrap;rounded=0;" parent="1" vertex="1">
          <mxGeometry x="300" y="360" width="50" height="20" as="geometry" />
        </mxCell>
        <mxCell id="R7maWW98rSnrO7kK5M2s-24" value="getCurrentSession()" style="rounded=1;whiteSpace=wrap;html=1;fillColor=#dae8fc;strokeColor=#6c8ebf;" parent="1" vertex="1">
          <mxGeometry x="80" y="410" width="120" height="60" as="geometry" />
        </mxCell>
      </root>
    </mxGraphModel>
  </diagram>
  <diagram id="loji6d5wHGWuaxC7HTpE" name="Test_MaxClaimableSession=1">
    <mxGraphModel dx="946" dy="612" grid="1" gridSize="10" guides="1" tooltips="1" connect="1" arrows="1" fold="1" page="1" pageScale="1" pageWidth="850" pageHeight="1100" math="0" shadow="0">
      <root>
        <mxCell id="k_TUhZn_JpIToX4vtfrt-0" />
        <mxCell id="k_TUhZn_JpIToX4vtfrt-1" parent="k_TUhZn_JpIToX4vtfrt-0" />
        <mxCell id="k_TUhZn_JpIToX4vtfrt-10" style="edgeStyle=orthogonalEdgeStyle;rounded=0;orthogonalLoop=1;jettySize=auto;html=1;exitX=0.5;exitY=1;exitDx=0;exitDy=0;entryX=0.5;entryY=0;entryDx=0;entryDy=0;" parent="k_TUhZn_JpIToX4vtfrt-1" source="k_TUhZn_JpIToX4vtfrt-3" target="k_TUhZn_JpIToX4vtfrt-9" edge="1">
          <mxGeometry relative="1" as="geometry" />
        </mxCell>
        <mxCell id="k_TUhZn_JpIToX4vtfrt-3" value="&lt;div&gt;Session 1&lt;/div&gt;&lt;div&gt;{ profit:0,&lt;/div&gt;&lt;div&gt;profitPrev:[0],&lt;br&gt;&lt;/div&gt;&lt;div&gt;fromSteven: 10}&lt;br&gt;&lt;/div&gt;" style="rounded=1;whiteSpace=wrap;html=1;" parent="k_TUhZn_JpIToX4vtfrt-1" vertex="1">
          <mxGeometry x="200" y="90" width="120" height="60" as="geometry" />
        </mxCell>
        <mxCell id="k_TUhZn_JpIToX4vtfrt-6" style="edgeStyle=orthogonalEdgeStyle;rounded=0;orthogonalLoop=1;jettySize=auto;html=1;exitX=1;exitY=0.5;exitDx=0;exitDy=0;entryX=0;entryY=0.5;entryDx=0;entryDy=0;" parent="k_TUhZn_JpIToX4vtfrt-1" source="k_TUhZn_JpIToX4vtfrt-5" target="k_TUhZn_JpIToX4vtfrt-3" edge="1">
          <mxGeometry relative="1" as="geometry" />
        </mxCell>
        <mxCell id="k_TUhZn_JpIToX4vtfrt-5" value="Invest(amount:10, session:1, investor:Steve)" style="ellipse;whiteSpace=wrap;html=1;" parent="k_TUhZn_JpIToX4vtfrt-1" vertex="1">
          <mxGeometry y="90" width="120" height="60" as="geometry" />
        </mxCell>
        <mxCell id="k_TUhZn_JpIToX4vtfrt-16" style="edgeStyle=orthogonalEdgeStyle;rounded=0;orthogonalLoop=1;jettySize=auto;html=1;exitX=0.5;exitY=1;exitDx=0;exitDy=0;entryX=0.5;entryY=0;entryDx=0;entryDy=0;" parent="k_TUhZn_JpIToX4vtfrt-1" source="k_TUhZn_JpIToX4vtfrt-9" target="k_TUhZn_JpIToX4vtfrt-15" edge="1">
          <mxGeometry relative="1" as="geometry" />
        </mxCell>
        <mxCell id="k_TUhZn_JpIToX4vtfrt-9" value="addProfit(20)" style="rhombus;whiteSpace=wrap;html=1;" parent="k_TUhZn_JpIToX4vtfrt-1" vertex="1">
          <mxGeometry x="200" y="170" width="120" height="40" as="geometry" />
        </mxCell>
        <mxCell id="m3K5xn2STQ442jW90mxO-0" style="edgeStyle=orthogonalEdgeStyle;rounded=0;orthogonalLoop=1;jettySize=auto;html=1;exitX=0.5;exitY=1;exitDx=0;exitDy=0;entryX=0.5;entryY=0;entryDx=0;entryDy=0;" edge="1" parent="k_TUhZn_JpIToX4vtfrt-1" source="k_TUhZn_JpIToX4vtfrt-11" target="k_TUhZn_JpIToX4vtfrt-20">
          <mxGeometry relative="1" as="geometry" />
        </mxCell>
        <mxCell id="k_TUhZn_JpIToX4vtfrt-11" value="&lt;div&gt;Session 1&lt;/div&gt;&lt;div&gt;{ profit:20,&lt;/div&gt;&lt;div&gt;profitPrev:[0]&lt;br&gt;&lt;/div&gt;&lt;div&gt;fromSteve:10,&lt;/div&gt;&lt;div&gt;fromDave: 15}&lt;br&gt;&lt;/div&gt;" style="rounded=1;whiteSpace=wrap;html=1;" parent="k_TUhZn_JpIToX4vtfrt-1" vertex="1">
          <mxGeometry x="200" y="310" width="120" height="80" as="geometry" />
        </mxCell>
        <mxCell id="k_TUhZn_JpIToX4vtfrt-14" style="edgeStyle=orthogonalEdgeStyle;rounded=0;orthogonalLoop=1;jettySize=auto;html=1;exitX=1;exitY=0.5;exitDx=0;exitDy=0;entryX=0;entryY=0.5;entryDx=0;entryDy=0;" parent="k_TUhZn_JpIToX4vtfrt-1" source="k_TUhZn_JpIToX4vtfrt-13" target="k_TUhZn_JpIToX4vtfrt-11" edge="1">
          <mxGeometry relative="1" as="geometry" />
        </mxCell>
        <mxCell id="k_TUhZn_JpIToX4vtfrt-13" value="Invest(amount:15, session:1, investor:Dave)" style="ellipse;whiteSpace=wrap;html=1;" parent="k_TUhZn_JpIToX4vtfrt-1" vertex="1">
          <mxGeometry y="320" width="130" height="60" as="geometry" />
        </mxCell>
        <mxCell id="k_TUhZn_JpIToX4vtfrt-17" style="edgeStyle=orthogonalEdgeStyle;rounded=0;orthogonalLoop=1;jettySize=auto;html=1;exitX=0.5;exitY=1;exitDx=0;exitDy=0;entryX=0.5;entryY=0;entryDx=0;entryDy=0;" parent="k_TUhZn_JpIToX4vtfrt-1" source="k_TUhZn_JpIToX4vtfrt-15" target="k_TUhZn_JpIToX4vtfrt-11" edge="1">
          <mxGeometry relative="1" as="geometry" />
        </mxCell>
        <mxCell id="k_TUhZn_JpIToX4vtfrt-15" value="&lt;div&gt;Session 1&lt;/div&gt;&lt;div&gt;{ profit:20,&lt;/div&gt;&lt;div&gt;profitPrev:[0],&lt;br&gt;&lt;/div&gt;&lt;div&gt;fromSteven: 10}&lt;br&gt;&lt;/div&gt;" style="rounded=1;whiteSpace=wrap;html=1;" parent="k_TUhZn_JpIToX4vtfrt-1" vertex="1">
          <mxGeometry x="200" y="230" width="120" height="60" as="geometry" />
        </mxCell>
        <mxCell id="m3K5xn2STQ442jW90mxO-1" style="edgeStyle=orthogonalEdgeStyle;rounded=0;orthogonalLoop=1;jettySize=auto;html=1;exitX=0.5;exitY=1;exitDx=0;exitDy=0;entryX=0.5;entryY=0;entryDx=0;entryDy=0;" edge="1" parent="k_TUhZn_JpIToX4vtfrt-1" source="k_TUhZn_JpIToX4vtfrt-20" target="k_TUhZn_JpIToX4vtfrt-21">
          <mxGeometry relative="1" as="geometry" />
        </mxCell>
        <mxCell id="k_TUhZn_JpIToX4vtfrt-20" value="addProfit(30)" style="rhombus;whiteSpace=wrap;html=1;" parent="k_TUhZn_JpIToX4vtfrt-1" vertex="1">
          <mxGeometry x="200" y="410" width="120" height="30" as="geometry" />
        </mxCell>
        <mxCell id="m3K5xn2STQ442jW90mxO-2" style="edgeStyle=orthogonalEdgeStyle;rounded=0;orthogonalLoop=1;jettySize=auto;html=1;exitX=0.5;exitY=1;exitDx=0;exitDy=0;entryX=0.5;entryY=0;entryDx=0;entryDy=0;" edge="1" parent="k_TUhZn_JpIToX4vtfrt-1" source="k_TUhZn_JpIToX4vtfrt-21" target="k_TUhZn_JpIToX4vtfrt-22">
          <mxGeometry relative="1" as="geometry" />
        </mxCell>
        <mxCell id="k_TUhZn_JpIToX4vtfrt-21" value="&lt;div&gt;Session 1&lt;/div&gt;&lt;div&gt;{ profit:50,&lt;/div&gt;&lt;div&gt;profitPrev:[0],&lt;br&gt;&lt;/div&gt;&lt;div&gt;fromSteve:10,&lt;/div&gt;&lt;div&gt;fromDave: 15}&lt;br&gt;&lt;/div&gt;" style="rounded=1;whiteSpace=wrap;html=1;" parent="k_TUhZn_JpIToX4vtfrt-1" vertex="1">
          <mxGeometry x="200" y="460" width="120" height="70" as="geometry" />
        </mxCell>
        <mxCell id="k_TUhZn_JpIToX4vtfrt-38" style="edgeStyle=orthogonalEdgeStyle;rounded=0;orthogonalLoop=1;jettySize=auto;html=1;exitX=0.5;exitY=1;exitDx=0;exitDy=0;entryX=0.5;entryY=0;entryDx=0;entryDy=0;" parent="k_TUhZn_JpIToX4vtfrt-1" source="k_TUhZn_JpIToX4vtfrt-22" target="k_TUhZn_JpIToX4vtfrt-28" edge="1">
          <mxGeometry relative="1" as="geometry" />
        </mxCell>
        <mxCell id="k_TUhZn_JpIToX4vtfrt-22" value="&lt;div&gt;Session 1&lt;/div&gt;&lt;div&gt;{ profit:50,&lt;/div&gt;&lt;div&gt;profitPrev:[0],&lt;br&gt;&lt;/div&gt;&lt;div&gt;fromSteve:10,&lt;/div&gt;&lt;div&gt;fromDave: 40}&lt;br&gt;&lt;/div&gt;" style="rounded=1;whiteSpace=wrap;html=1;" parent="k_TUhZn_JpIToX4vtfrt-1" vertex="1">
          <mxGeometry x="200" y="545" width="120" height="70" as="geometry" />
        </mxCell>
        <mxCell id="k_TUhZn_JpIToX4vtfrt-23" style="edgeStyle=orthogonalEdgeStyle;rounded=0;orthogonalLoop=1;jettySize=auto;html=1;exitX=1;exitY=0.5;exitDx=0;exitDy=0;entryX=0;entryY=0.5;entryDx=0;entryDy=0;" parent="k_TUhZn_JpIToX4vtfrt-1" source="k_TUhZn_JpIToX4vtfrt-24" target="k_TUhZn_JpIToX4vtfrt-22" edge="1">
          <mxGeometry relative="1" as="geometry" />
        </mxCell>
        <mxCell id="k_TUhZn_JpIToX4vtfrt-24" value="Invest(amount:25, session:1, investor:Dave)" style="ellipse;whiteSpace=wrap;html=1;" parent="k_TUhZn_JpIToX4vtfrt-1" vertex="1">
          <mxGeometry y="550" width="130" height="60" as="geometry" />
        </mxCell>
        <mxCell id="k_TUhZn_JpIToX4vtfrt-31" style="edgeStyle=orthogonalEdgeStyle;rounded=0;orthogonalLoop=1;jettySize=auto;html=1;exitX=1;exitY=0.5;exitDx=0;exitDy=0;entryX=0;entryY=0.5;entryDx=0;entryDy=0;" parent="k_TUhZn_JpIToX4vtfrt-1" source="k_TUhZn_JpIToX4vtfrt-28" target="k_TUhZn_JpIToX4vtfrt-30" edge="1">
          <mxGeometry relative="1" as="geometry" />
        </mxCell>
        <mxCell id="yJquGkovCwR76NoG3Z3U-9" style="edgeStyle=orthogonalEdgeStyle;rounded=0;orthogonalLoop=1;jettySize=auto;html=1;exitX=0.5;exitY=1;exitDx=0;exitDy=0;entryX=0.5;entryY=0;entryDx=0;entryDy=0;" parent="k_TUhZn_JpIToX4vtfrt-1" source="k_TUhZn_JpIToX4vtfrt-28" target="yJquGkovCwR76NoG3Z3U-8" edge="1">
          <mxGeometry relative="1" as="geometry" />
        </mxCell>
        <mxCell id="k_TUhZn_JpIToX4vtfrt-28" value="&lt;div&gt;Session 1&lt;/div&gt;&lt;div&gt;{ profit:50, profitPrev:[0],&lt;br&gt;&lt;/div&gt;&lt;div&gt;fromSteve:10,&lt;/div&gt;&lt;div&gt;fromDave: 40}&lt;br&gt;&lt;/div&gt;" style="rounded=1;whiteSpace=wrap;html=1;" parent="k_TUhZn_JpIToX4vtfrt-1" vertex="1">
          <mxGeometry x="200" y="635" width="120" height="70" as="geometry" />
        </mxCell>
        <mxCell id="k_TUhZn_JpIToX4vtfrt-30" value="Claim(session:1, investor:Dave) = 0" style="ellipse;whiteSpace=wrap;html=1;" parent="k_TUhZn_JpIToX4vtfrt-1" vertex="1">
          <mxGeometry x="390" y="640" width="130" height="60" as="geometry" />
        </mxCell>
        <mxCell id="k_TUhZn_JpIToX4vtfrt-35" value="" style="verticalLabelPosition=bottom;verticalAlign=top;html=1;shape=mxgraph.basic.flash" parent="k_TUhZn_JpIToX4vtfrt-1" vertex="1">
          <mxGeometry x="340" y="635" width="20" height="70" as="geometry" />
        </mxCell>
        <mxCell id="k_TUhZn_JpIToX4vtfrt-46" style="edgeStyle=orthogonalEdgeStyle;rounded=0;orthogonalLoop=1;jettySize=auto;html=1;exitX=0.5;exitY=1;exitDx=0;exitDy=0;entryX=0.5;entryY=0;entryDx=0;entryDy=0;" parent="k_TUhZn_JpIToX4vtfrt-1" source="k_TUhZn_JpIToX4vtfrt-39" target="k_TUhZn_JpIToX4vtfrt-45" edge="1">
          <mxGeometry relative="1" as="geometry" />
        </mxCell>
        <mxCell id="k_TUhZn_JpIToX4vtfrt-39" value="&lt;div&gt;Session 2&lt;br&gt;&lt;/div&gt;&lt;div&gt;{ profit:0,&lt;br&gt;&lt;/div&gt;&lt;div&gt;profitPrev:[50],&lt;/div&gt;&lt;div&gt;fromSteve:10,&lt;/div&gt;&lt;div&gt;fromDave: 40}&lt;br&gt;&lt;/div&gt;" style="rounded=1;whiteSpace=wrap;html=1;" parent="k_TUhZn_JpIToX4vtfrt-1" vertex="1">
          <mxGeometry x="200" y="780" width="120" height="70" as="geometry" />
        </mxCell>
        <mxCell id="k_TUhZn_JpIToX4vtfrt-43" value="Claim(session: 2, investor:Dave) = 40" style="ellipse;whiteSpace=wrap;html=1;" parent="k_TUhZn_JpIToX4vtfrt-1" vertex="1">
          <mxGeometry x="390" y="870" width="130" height="60" as="geometry" />
        </mxCell>
        <mxCell id="k_TUhZn_JpIToX4vtfrt-47" style="edgeStyle=orthogonalEdgeStyle;rounded=0;orthogonalLoop=1;jettySize=auto;html=1;exitX=1;exitY=0.5;exitDx=0;exitDy=0;entryX=0;entryY=0.5;entryDx=0;entryDy=0;" parent="k_TUhZn_JpIToX4vtfrt-1" source="k_TUhZn_JpIToX4vtfrt-45" target="k_TUhZn_JpIToX4vtfrt-43" edge="1">
          <mxGeometry relative="1" as="geometry" />
        </mxCell>
        <mxCell id="yJquGkovCwR76NoG3Z3U-12" style="edgeStyle=orthogonalEdgeStyle;rounded=0;orthogonalLoop=1;jettySize=auto;html=1;exitX=0.5;exitY=1;exitDx=0;exitDy=0;entryX=0.5;entryY=0;entryDx=0;entryDy=0;" parent="k_TUhZn_JpIToX4vtfrt-1" source="k_TUhZn_JpIToX4vtfrt-45" target="yJquGkovCwR76NoG3Z3U-11" edge="1">
          <mxGeometry relative="1" as="geometry" />
        </mxCell>
        <mxCell id="k_TUhZn_JpIToX4vtfrt-45" value="&lt;div&gt;Session 2&lt;br&gt;&lt;/div&gt;&lt;div&gt;{ profit:0,&lt;br&gt;&lt;/div&gt;&lt;div&gt;profitPrev:[50],&lt;/div&gt;&lt;div&gt;fromSteve:10,&lt;/div&gt;&lt;div&gt;fromDave: 40}&lt;br&gt;&lt;/div&gt;" style="rounded=1;whiteSpace=wrap;html=1;" parent="k_TUhZn_JpIToX4vtfrt-1" vertex="1">
          <mxGeometry x="200" y="865" width="120" height="70" as="geometry" />
        </mxCell>
        <mxCell id="k_TUhZn_JpIToX4vtfrt-56" style="edgeStyle=orthogonalEdgeStyle;rounded=0;orthogonalLoop=1;jettySize=auto;html=1;exitX=0.5;exitY=1;exitDx=0;exitDy=0;entryX=0.5;entryY=1;entryDx=0;entryDy=0;" parent="k_TUhZn_JpIToX4vtfrt-1" source="k_TUhZn_JpIToX4vtfrt-53" target="k_TUhZn_JpIToX4vtfrt-55" edge="1">
          <mxGeometry relative="1" as="geometry">
            <Array as="points">
              <mxPoint x="260" y="1090" />
              <mxPoint x="620" y="1090" />
            </Array>
          </mxGeometry>
        </mxCell>
        <mxCell id="k_TUhZn_JpIToX4vtfrt-53" value="&lt;div&gt;Session 3&lt;br&gt;&lt;/div&gt;&lt;div&gt;{ profit:0,&lt;br&gt;&lt;/div&gt;&lt;div&gt;profitPrev:[0],&lt;/div&gt;&lt;div&gt;fromSteve:10,&lt;/div&gt;&lt;div&gt;fromDave: 40}&lt;br&gt;&lt;/div&gt;" style="rounded=1;whiteSpace=wrap;html=1;" parent="k_TUhZn_JpIToX4vtfrt-1" vertex="1">
          <mxGeometry x="200" y="1010" width="120" height="70" as="geometry" />
        </mxCell>
        <mxCell id="k_TUhZn_JpIToX4vtfrt-60" style="edgeStyle=orthogonalEdgeStyle;rounded=0;orthogonalLoop=1;jettySize=auto;html=1;exitX=0.5;exitY=0;exitDx=0;exitDy=0;entryX=0.5;entryY=1;entryDx=0;entryDy=0;" parent="k_TUhZn_JpIToX4vtfrt-1" source="k_TUhZn_JpIToX4vtfrt-55" target="k_TUhZn_JpIToX4vtfrt-59" edge="1">
          <mxGeometry relative="1" as="geometry" />
        </mxCell>
        <mxCell id="k_TUhZn_JpIToX4vtfrt-55" value="&lt;div&gt;Session 3&lt;br&gt;&lt;/div&gt;&lt;div&gt;{ profit:0,&lt;br&gt;&lt;/div&gt;&lt;div&gt;profitPrev:[0],&lt;/div&gt;&lt;div&gt;fromSteve:30,&lt;/div&gt;&lt;div&gt;fromDave: 40}&lt;br&gt;&lt;/div&gt;" style="rounded=1;whiteSpace=wrap;html=1;" parent="k_TUhZn_JpIToX4vtfrt-1" vertex="1">
          <mxGeometry x="560" y="1010" width="120" height="70" as="geometry" />
        </mxCell>
        <mxCell id="k_TUhZn_JpIToX4vtfrt-58" style="edgeStyle=orthogonalEdgeStyle;rounded=0;orthogonalLoop=1;jettySize=auto;html=1;exitX=1;exitY=0.5;exitDx=0;exitDy=0;" parent="k_TUhZn_JpIToX4vtfrt-1" source="k_TUhZn_JpIToX4vtfrt-57" target="k_TUhZn_JpIToX4vtfrt-55" edge="1">
          <mxGeometry relative="1" as="geometry" />
        </mxCell>
        <mxCell id="k_TUhZn_JpIToX4vtfrt-57" value="Invest(amount:20, session:3, investor:Steve)" style="ellipse;whiteSpace=wrap;html=1;" parent="k_TUhZn_JpIToX4vtfrt-1" vertex="1">
          <mxGeometry x="400" y="1015" width="120" height="60" as="geometry" />
        </mxCell>
        <mxCell id="k_TUhZn_JpIToX4vtfrt-62" style="edgeStyle=orthogonalEdgeStyle;rounded=0;orthogonalLoop=1;jettySize=auto;html=1;exitX=1;exitY=0.5;exitDx=0;exitDy=0;entryX=0;entryY=0.5;entryDx=0;entryDy=0;" parent="k_TUhZn_JpIToX4vtfrt-1" source="k_TUhZn_JpIToX4vtfrt-59" target="k_TUhZn_JpIToX4vtfrt-61" edge="1">
          <mxGeometry relative="1" as="geometry" />
        </mxCell>
        <mxCell id="k_TUhZn_JpIToX4vtfrt-65" style="edgeStyle=orthogonalEdgeStyle;rounded=0;orthogonalLoop=1;jettySize=auto;html=1;exitX=0.5;exitY=0;exitDx=0;exitDy=0;entryX=0.5;entryY=1;entryDx=0;entryDy=0;" parent="k_TUhZn_JpIToX4vtfrt-1" source="k_TUhZn_JpIToX4vtfrt-59" target="k_TUhZn_JpIToX4vtfrt-64" edge="1">
          <mxGeometry relative="1" as="geometry" />
        </mxCell>
        <mxCell id="k_TUhZn_JpIToX4vtfrt-59" value="&lt;div&gt;Session 3&lt;br&gt;&lt;/div&gt;&lt;div&gt;{ profit:0,&lt;br&gt;&lt;/div&gt;&lt;div&gt;profitPrev: [0],&lt;/div&gt;&lt;div&gt;fromSteve:30,&lt;/div&gt;&lt;div&gt;fromDave: 40}&lt;br&gt;&lt;/div&gt;" style="rounded=1;whiteSpace=wrap;html=1;" parent="k_TUhZn_JpIToX4vtfrt-1" vertex="1">
          <mxGeometry x="560" y="870" width="120" height="70" as="geometry" />
        </mxCell>
        <mxCell id="k_TUhZn_JpIToX4vtfrt-61" value="Claim(session:3, investor:Steve)=0" style="ellipse;whiteSpace=wrap;html=1;" parent="k_TUhZn_JpIToX4vtfrt-1" vertex="1">
          <mxGeometry x="720" y="875" width="130" height="60" as="geometry" />
        </mxCell>
        <mxCell id="k_TUhZn_JpIToX4vtfrt-63" value="" style="verticalLabelPosition=bottom;verticalAlign=top;html=1;shape=mxgraph.basic.flash" parent="k_TUhZn_JpIToX4vtfrt-1" vertex="1">
          <mxGeometry x="688" y="866" width="20" height="70" as="geometry" />
        </mxCell>
        <mxCell id="k_TUhZn_JpIToX4vtfrt-67" style="edgeStyle=orthogonalEdgeStyle;rounded=0;orthogonalLoop=1;jettySize=auto;html=1;exitX=0.5;exitY=0;exitDx=0;exitDy=0;entryX=0.5;entryY=1;entryDx=0;entryDy=0;" parent="k_TUhZn_JpIToX4vtfrt-1" source="k_TUhZn_JpIToX4vtfrt-64" target="k_TUhZn_JpIToX4vtfrt-66" edge="1">
          <mxGeometry relative="1" as="geometry" />
        </mxCell>
        <mxCell id="k_TUhZn_JpIToX4vtfrt-64" value="addProfit(35)" style="rhombus;whiteSpace=wrap;html=1;" parent="k_TUhZn_JpIToX4vtfrt-1" vertex="1">
          <mxGeometry x="560" y="800" width="120" height="40" as="geometry" />
        </mxCell>
        <mxCell id="yJquGkovCwR76NoG3Z3U-15" style="edgeStyle=orthogonalEdgeStyle;rounded=0;orthogonalLoop=1;jettySize=auto;html=1;exitX=0.5;exitY=0;exitDx=0;exitDy=0;entryX=0.5;entryY=1;entryDx=0;entryDy=0;" parent="k_TUhZn_JpIToX4vtfrt-1" source="k_TUhZn_JpIToX4vtfrt-66" target="yJquGkovCwR76NoG3Z3U-14" edge="1">
          <mxGeometry relative="1" as="geometry" />
        </mxCell>
        <mxCell id="k_TUhZn_JpIToX4vtfrt-66" value="&lt;div&gt;Session 3&lt;br&gt;&lt;/div&gt;&lt;div&gt;{ profit:35,&lt;br&gt;&lt;/div&gt;&lt;div&gt;profitPrev:[0],&lt;/div&gt;&lt;div&gt;fromSteve:30,&lt;/div&gt;&lt;div&gt;fromDave: 40}&lt;br&gt;&lt;/div&gt;" style="rounded=1;whiteSpace=wrap;html=1;" parent="k_TUhZn_JpIToX4vtfrt-1" vertex="1">
          <mxGeometry x="560" y="710" width="120" height="70" as="geometry" />
        </mxCell>
        <mxCell id="k_TUhZn_JpIToX4vtfrt-73" style="edgeStyle=orthogonalEdgeStyle;rounded=0;orthogonalLoop=1;jettySize=auto;html=1;exitX=1;exitY=0.5;exitDx=0;exitDy=0;entryX=0;entryY=0.5;entryDx=0;entryDy=0;" parent="k_TUhZn_JpIToX4vtfrt-1" source="k_TUhZn_JpIToX4vtfrt-70" target="k_TUhZn_JpIToX4vtfrt-72" edge="1">
          <mxGeometry relative="1" as="geometry" />
        </mxCell>
        <mxCell id="k_TUhZn_JpIToX4vtfrt-75" style="edgeStyle=orthogonalEdgeStyle;rounded=0;orthogonalLoop=1;jettySize=auto;html=1;exitX=0.5;exitY=0;exitDx=0;exitDy=0;entryX=0.5;entryY=1;entryDx=0;entryDy=0;" parent="k_TUhZn_JpIToX4vtfrt-1" source="k_TUhZn_JpIToX4vtfrt-70" target="k_TUhZn_JpIToX4vtfrt-74" edge="1">
          <mxGeometry relative="1" as="geometry" />
        </mxCell>
        <mxCell id="k_TUhZn_JpIToX4vtfrt-70" value="&lt;div&gt;Session 4&lt;br&gt;&lt;/div&gt;&lt;div&gt;{ profit:0,&lt;br&gt;&lt;/div&gt;&lt;div&gt;profitPrev: [35],&lt;/div&gt;&lt;div&gt;fromSteve:30,&lt;/div&gt;&lt;div&gt;fromDave: 40}&lt;br&gt;&lt;/div&gt;" style="rounded=1;whiteSpace=wrap;html=1;" parent="k_TUhZn_JpIToX4vtfrt-1" vertex="1">
          <mxGeometry x="560" y="430" width="120" height="70" as="geometry" />
        </mxCell>
        <mxCell id="k_TUhZn_JpIToX4vtfrt-72" value="Claim(session:4, investor:Steve)=15" style="ellipse;whiteSpace=wrap;html=1;" parent="k_TUhZn_JpIToX4vtfrt-1" vertex="1">
          <mxGeometry x="720" y="435" width="130" height="60" as="geometry" />
        </mxCell>
        <mxCell id="k_TUhZn_JpIToX4vtfrt-77" style="edgeStyle=orthogonalEdgeStyle;rounded=0;orthogonalLoop=1;jettySize=auto;html=1;exitX=1;exitY=0.5;exitDx=0;exitDy=0;entryX=0;entryY=0.5;entryDx=0;entryDy=0;" parent="k_TUhZn_JpIToX4vtfrt-1" source="k_TUhZn_JpIToX4vtfrt-74" target="k_TUhZn_JpIToX4vtfrt-76" edge="1">
          <mxGeometry relative="1" as="geometry" />
        </mxCell>
        <mxCell id="k_TUhZn_JpIToX4vtfrt-74" value="&lt;div&gt;Session 4&lt;br&gt;&lt;/div&gt;&lt;div&gt;{ profit:0&lt;br&gt;&lt;/div&gt;&lt;div&gt;profitPrev:[35],&lt;/div&gt;&lt;div&gt;fromSteve:30,&lt;/div&gt;&lt;div&gt;fromDave: 40}&lt;br&gt;&lt;/div&gt;" style="rounded=1;whiteSpace=wrap;html=1;" parent="k_TUhZn_JpIToX4vtfrt-1" vertex="1">
          <mxGeometry x="560" y="320" width="120" height="70" as="geometry" />
        </mxCell>
        <mxCell id="k_TUhZn_JpIToX4vtfrt-76" value="Claim(session: 4, investor:Dave) = 20" style="ellipse;whiteSpace=wrap;html=1;" parent="k_TUhZn_JpIToX4vtfrt-1" vertex="1">
          <mxGeometry x="720" y="325" width="130" height="60" as="geometry" />
        </mxCell>
        <mxCell id="yJquGkovCwR76NoG3Z3U-5" style="edgeStyle=orthogonalEdgeStyle;rounded=0;orthogonalLoop=1;jettySize=auto;html=1;exitX=0.5;exitY=0;exitDx=0;exitDy=0;entryX=0.5;entryY=1;entryDx=0;entryDy=0;" parent="k_TUhZn_JpIToX4vtfrt-1" source="yJquGkovCwR76NoG3Z3U-3" target="k_TUhZn_JpIToX4vtfrt-70" edge="1">
          <mxGeometry relative="1" as="geometry" />
        </mxCell>
        <mxCell id="yJquGkovCwR76NoG3Z3U-3" value="&lt;div&gt;Session 4&lt;br&gt;&lt;/div&gt;&lt;div&gt;{ profit:0,&lt;br&gt;&lt;/div&gt;&lt;div&gt;profitPrev: [35],&lt;/div&gt;&lt;div&gt;fromSteve:30,&lt;/div&gt;&lt;div&gt;fromDave: 40}&lt;br&gt;&lt;/div&gt;" style="rounded=1;whiteSpace=wrap;html=1;" parent="k_TUhZn_JpIToX4vtfrt-1" vertex="1">
          <mxGeometry x="560" y="545" width="120" height="70" as="geometry" />
        </mxCell>
        <mxCell id="yJquGkovCwR76NoG3Z3U-10" style="edgeStyle=orthogonalEdgeStyle;rounded=0;orthogonalLoop=1;jettySize=auto;html=1;exitX=0.5;exitY=1;exitDx=0;exitDy=0;entryX=0.5;entryY=0;entryDx=0;entryDy=0;" parent="k_TUhZn_JpIToX4vtfrt-1" source="yJquGkovCwR76NoG3Z3U-8" target="k_TUhZn_JpIToX4vtfrt-39" edge="1">
          <mxGeometry relative="1" as="geometry" />
        </mxCell>
        <mxCell id="yJquGkovCwR76NoG3Z3U-8" value="&lt;div&gt;newSession(2)&lt;/div&gt;&lt;div&gt;profitPrev.shift().&lt;/div&gt;&lt;div&gt;push(profit)&lt;br&gt;&lt;/div&gt;" style="shape=hexagon;perimeter=hexagonPerimeter2;whiteSpace=wrap;html=1;fixedSize=1;" parent="k_TUhZn_JpIToX4vtfrt-1" vertex="1">
          <mxGeometry x="200" y="720" width="120" height="40" as="geometry" />
        </mxCell>
        <mxCell id="yJquGkovCwR76NoG3Z3U-13" style="edgeStyle=orthogonalEdgeStyle;rounded=0;orthogonalLoop=1;jettySize=auto;html=1;exitX=0.5;exitY=1;exitDx=0;exitDy=0;entryX=0.5;entryY=0;entryDx=0;entryDy=0;" parent="k_TUhZn_JpIToX4vtfrt-1" source="yJquGkovCwR76NoG3Z3U-11" target="k_TUhZn_JpIToX4vtfrt-53" edge="1">
          <mxGeometry relative="1" as="geometry" />
        </mxCell>
        <mxCell id="yJquGkovCwR76NoG3Z3U-11" value="&lt;div&gt;newSession(3)&lt;/div&gt;&lt;div&gt;profitPrev.shift().&lt;/div&gt;&lt;div&gt;push(profit)&lt;br&gt;&lt;/div&gt;" style="shape=hexagon;perimeter=hexagonPerimeter2;whiteSpace=wrap;html=1;fixedSize=1;" parent="k_TUhZn_JpIToX4vtfrt-1" vertex="1">
          <mxGeometry x="200" y="950" width="120" height="40" as="geometry" />
        </mxCell>
        <mxCell id="yJquGkovCwR76NoG3Z3U-17" style="edgeStyle=orthogonalEdgeStyle;rounded=0;orthogonalLoop=1;jettySize=auto;html=1;exitX=0.5;exitY=0;exitDx=0;exitDy=0;entryX=0.5;entryY=1;entryDx=0;entryDy=0;" parent="k_TUhZn_JpIToX4vtfrt-1" source="yJquGkovCwR76NoG3Z3U-14" target="yJquGkovCwR76NoG3Z3U-3" edge="1">
          <mxGeometry relative="1" as="geometry" />
        </mxCell>
        <mxCell id="yJquGkovCwR76NoG3Z3U-14" value="&lt;div&gt;newSession(4)&lt;/div&gt;&lt;div&gt;profitPrev.shift().&lt;/div&gt;&lt;div&gt;push(profit)&lt;br&gt;&lt;/div&gt;" style="shape=hexagon;perimeter=hexagonPerimeter2;whiteSpace=wrap;html=1;fixedSize=1;" parent="k_TUhZn_JpIToX4vtfrt-1" vertex="1">
          <mxGeometry x="560" y="650" width="120" height="40" as="geometry" />
        </mxCell>
        <mxCell id="qhMx9awklwHbOFY4VPaS-0" value="maxClaimableSession = 1" style="text;html=1;strokeColor=none;fillColor=none;align=center;verticalAlign=middle;whiteSpace=wrap;rounded=0;fontSize=20;" vertex="1" parent="k_TUhZn_JpIToX4vtfrt-1">
          <mxGeometry x="320" y="20" width="305" height="20" as="geometry" />
        </mxCell>
        <mxCell id="CW_NQTFAMHuf74rHYHPA-3" style="edgeStyle=orthogonalEdgeStyle;rounded=0;orthogonalLoop=1;jettySize=auto;html=1;exitX=0.5;exitY=1;exitDx=0;exitDy=0;entryX=0.5;entryY=0;entryDx=0;entryDy=0;fontSize=20;" edge="1" parent="k_TUhZn_JpIToX4vtfrt-1" source="CW_NQTFAMHuf74rHYHPA-1" target="k_TUhZn_JpIToX4vtfrt-3">
          <mxGeometry relative="1" as="geometry" />
        </mxCell>
        <mxCell id="CW_NQTFAMHuf74rHYHPA-1" value="&lt;div&gt;newSession(1)&lt;/div&gt;" style="shape=hexagon;perimeter=hexagonPerimeter2;whiteSpace=wrap;html=1;fixedSize=1;" vertex="1" parent="k_TUhZn_JpIToX4vtfrt-1">
          <mxGeometry x="200" y="20" width="120" height="40" as="geometry" />
        </mxCell>
      </root>
    </mxGraphModel>
  </diagram>
  <diagram id="C_Lap4P_rimV70JenlwI" name="Test_MaxClaimableSession=2">
    <mxGraphModel dx="946" dy="612" grid="1" gridSize="10" guides="1" tooltips="1" connect="1" arrows="1" fold="1" page="1" pageScale="1" pageWidth="850" pageHeight="1100" math="0" shadow="0">
      <root>
        <mxCell id="iTom-UJpVvmiZ_75oO6J-0" />
        <mxCell id="iTom-UJpVvmiZ_75oO6J-1" parent="iTom-UJpVvmiZ_75oO6J-0" />
        <mxCell id="5X1X3crS44ORBH0vk_nt-0" style="edgeStyle=orthogonalEdgeStyle;rounded=0;orthogonalLoop=1;jettySize=auto;html=1;exitX=0.5;exitY=1;exitDx=0;exitDy=0;entryX=0.5;entryY=0;entryDx=0;entryDy=0;" edge="1" parent="iTom-UJpVvmiZ_75oO6J-1" source="5X1X3crS44ORBH0vk_nt-1" target="5X1X3crS44ORBH0vk_nt-5">
          <mxGeometry relative="1" as="geometry" />
        </mxCell>
        <mxCell id="5X1X3crS44ORBH0vk_nt-1" value="&lt;div&gt;Session 1&lt;/div&gt;&lt;div&gt;{ profit:0,&lt;/div&gt;&lt;div&gt;profitPrev:[0],&lt;br&gt;&lt;/div&gt;&lt;div&gt;fromSteven: 10}&lt;br&gt;&lt;/div&gt;" style="rounded=1;whiteSpace=wrap;html=1;" vertex="1" parent="iTom-UJpVvmiZ_75oO6J-1">
          <mxGeometry x="200" y="90" width="120" height="60" as="geometry" />
        </mxCell>
        <mxCell id="5X1X3crS44ORBH0vk_nt-2" style="edgeStyle=orthogonalEdgeStyle;rounded=0;orthogonalLoop=1;jettySize=auto;html=1;exitX=1;exitY=0.5;exitDx=0;exitDy=0;entryX=0;entryY=0.5;entryDx=0;entryDy=0;" edge="1" parent="iTom-UJpVvmiZ_75oO6J-1" source="5X1X3crS44ORBH0vk_nt-3" target="5X1X3crS44ORBH0vk_nt-1">
          <mxGeometry relative="1" as="geometry" />
        </mxCell>
        <mxCell id="5X1X3crS44ORBH0vk_nt-3" value="Invest(amount:10, session:1, investor:Steve)" style="ellipse;whiteSpace=wrap;html=1;" vertex="1" parent="iTom-UJpVvmiZ_75oO6J-1">
          <mxGeometry y="90" width="120" height="60" as="geometry" />
        </mxCell>
        <mxCell id="5X1X3crS44ORBH0vk_nt-4" style="edgeStyle=orthogonalEdgeStyle;rounded=0;orthogonalLoop=1;jettySize=auto;html=1;exitX=0.5;exitY=1;exitDx=0;exitDy=0;entryX=0.5;entryY=0;entryDx=0;entryDy=0;" edge="1" parent="iTom-UJpVvmiZ_75oO6J-1" source="5X1X3crS44ORBH0vk_nt-5" target="5X1X3crS44ORBH0vk_nt-11">
          <mxGeometry relative="1" as="geometry" />
        </mxCell>
        <mxCell id="5X1X3crS44ORBH0vk_nt-5" value="addProfit(20)" style="rhombus;whiteSpace=wrap;html=1;" vertex="1" parent="iTom-UJpVvmiZ_75oO6J-1">
          <mxGeometry x="200" y="170" width="120" height="40" as="geometry" />
        </mxCell>
        <mxCell id="5X1X3crS44ORBH0vk_nt-6" style="edgeStyle=orthogonalEdgeStyle;rounded=0;orthogonalLoop=1;jettySize=auto;html=1;exitX=0.5;exitY=1;exitDx=0;exitDy=0;entryX=0.5;entryY=0;entryDx=0;entryDy=0;" edge="1" parent="iTom-UJpVvmiZ_75oO6J-1" source="5X1X3crS44ORBH0vk_nt-7" target="5X1X3crS44ORBH0vk_nt-13">
          <mxGeometry relative="1" as="geometry" />
        </mxCell>
        <mxCell id="5X1X3crS44ORBH0vk_nt-7" value="&lt;div&gt;Session 1&lt;/div&gt;&lt;div&gt;{ profit:20,&lt;/div&gt;&lt;div&gt;profitPrev:[0]&lt;br&gt;&lt;/div&gt;&lt;div&gt;fromSteve:10,&lt;/div&gt;&lt;div&gt;fromDave: 15}&lt;br&gt;&lt;/div&gt;" style="rounded=1;whiteSpace=wrap;html=1;" vertex="1" parent="iTom-UJpVvmiZ_75oO6J-1">
          <mxGeometry x="200" y="310" width="120" height="80" as="geometry" />
        </mxCell>
        <mxCell id="5X1X3crS44ORBH0vk_nt-8" style="edgeStyle=orthogonalEdgeStyle;rounded=0;orthogonalLoop=1;jettySize=auto;html=1;exitX=1;exitY=0.5;exitDx=0;exitDy=0;entryX=0;entryY=0.5;entryDx=0;entryDy=0;" edge="1" parent="iTom-UJpVvmiZ_75oO6J-1" source="5X1X3crS44ORBH0vk_nt-9" target="5X1X3crS44ORBH0vk_nt-7">
          <mxGeometry relative="1" as="geometry" />
        </mxCell>
        <mxCell id="5X1X3crS44ORBH0vk_nt-9" value="Invest(amount:15, session:1, investor:Dave)" style="ellipse;whiteSpace=wrap;html=1;" vertex="1" parent="iTom-UJpVvmiZ_75oO6J-1">
          <mxGeometry y="320" width="130" height="60" as="geometry" />
        </mxCell>
        <mxCell id="5X1X3crS44ORBH0vk_nt-10" style="edgeStyle=orthogonalEdgeStyle;rounded=0;orthogonalLoop=1;jettySize=auto;html=1;exitX=0.5;exitY=1;exitDx=0;exitDy=0;entryX=0.5;entryY=0;entryDx=0;entryDy=0;" edge="1" parent="iTom-UJpVvmiZ_75oO6J-1" source="5X1X3crS44ORBH0vk_nt-11" target="5X1X3crS44ORBH0vk_nt-7">
          <mxGeometry relative="1" as="geometry" />
        </mxCell>
        <mxCell id="5X1X3crS44ORBH0vk_nt-11" value="&lt;div&gt;Session 1&lt;/div&gt;&lt;div&gt;{ profit:20,&lt;/div&gt;&lt;div&gt;profitPrev:[0],&lt;br&gt;&lt;/div&gt;&lt;div&gt;fromSteven: 10}&lt;br&gt;&lt;/div&gt;" style="rounded=1;whiteSpace=wrap;html=1;" vertex="1" parent="iTom-UJpVvmiZ_75oO6J-1">
          <mxGeometry x="200" y="230" width="120" height="60" as="geometry" />
        </mxCell>
        <mxCell id="5X1X3crS44ORBH0vk_nt-12" style="edgeStyle=orthogonalEdgeStyle;rounded=0;orthogonalLoop=1;jettySize=auto;html=1;exitX=0.5;exitY=1;exitDx=0;exitDy=0;entryX=0.5;entryY=0;entryDx=0;entryDy=0;" edge="1" parent="iTom-UJpVvmiZ_75oO6J-1" source="5X1X3crS44ORBH0vk_nt-13" target="5X1X3crS44ORBH0vk_nt-15">
          <mxGeometry relative="1" as="geometry" />
        </mxCell>
        <mxCell id="5X1X3crS44ORBH0vk_nt-13" value="addProfit(30)" style="rhombus;whiteSpace=wrap;html=1;" vertex="1" parent="iTom-UJpVvmiZ_75oO6J-1">
          <mxGeometry x="200" y="410" width="120" height="30" as="geometry" />
        </mxCell>
        <mxCell id="5X1X3crS44ORBH0vk_nt-14" style="edgeStyle=orthogonalEdgeStyle;rounded=0;orthogonalLoop=1;jettySize=auto;html=1;exitX=0.5;exitY=1;exitDx=0;exitDy=0;entryX=0.5;entryY=0;entryDx=0;entryDy=0;" edge="1" parent="iTom-UJpVvmiZ_75oO6J-1" source="5X1X3crS44ORBH0vk_nt-15" target="5X1X3crS44ORBH0vk_nt-17">
          <mxGeometry relative="1" as="geometry" />
        </mxCell>
        <mxCell id="5X1X3crS44ORBH0vk_nt-15" value="&lt;div&gt;Session 1&lt;/div&gt;&lt;div&gt;{ profit:50,&lt;/div&gt;&lt;div&gt;profitPrev:[0],&lt;br&gt;&lt;/div&gt;&lt;div&gt;fromSteve:10,&lt;/div&gt;&lt;div&gt;fromDave: 15}&lt;br&gt;&lt;/div&gt;" style="rounded=1;whiteSpace=wrap;html=1;" vertex="1" parent="iTom-UJpVvmiZ_75oO6J-1">
          <mxGeometry x="200" y="460" width="120" height="70" as="geometry" />
        </mxCell>
        <mxCell id="5X1X3crS44ORBH0vk_nt-16" style="edgeStyle=orthogonalEdgeStyle;rounded=0;orthogonalLoop=1;jettySize=auto;html=1;exitX=0.5;exitY=1;exitDx=0;exitDy=0;entryX=0.5;entryY=0;entryDx=0;entryDy=0;" edge="1" parent="iTom-UJpVvmiZ_75oO6J-1" source="5X1X3crS44ORBH0vk_nt-17" target="5X1X3crS44ORBH0vk_nt-22">
          <mxGeometry relative="1" as="geometry" />
        </mxCell>
        <mxCell id="5X1X3crS44ORBH0vk_nt-17" value="&lt;div&gt;Session 1&lt;/div&gt;&lt;div&gt;{ profit:50,&lt;/div&gt;&lt;div&gt;profitPrev:[0],&lt;br&gt;&lt;/div&gt;&lt;div&gt;fromSteve:10,&lt;/div&gt;&lt;div&gt;fromDave: 40}&lt;br&gt;&lt;/div&gt;" style="rounded=1;whiteSpace=wrap;html=1;" vertex="1" parent="iTom-UJpVvmiZ_75oO6J-1">
          <mxGeometry x="200" y="545" width="120" height="70" as="geometry" />
        </mxCell>
        <mxCell id="5X1X3crS44ORBH0vk_nt-18" style="edgeStyle=orthogonalEdgeStyle;rounded=0;orthogonalLoop=1;jettySize=auto;html=1;exitX=1;exitY=0.5;exitDx=0;exitDy=0;entryX=0;entryY=0.5;entryDx=0;entryDy=0;" edge="1" parent="iTom-UJpVvmiZ_75oO6J-1" source="5X1X3crS44ORBH0vk_nt-19" target="5X1X3crS44ORBH0vk_nt-17">
          <mxGeometry relative="1" as="geometry" />
        </mxCell>
        <mxCell id="5X1X3crS44ORBH0vk_nt-19" value="Invest(amount:25, session:1, investor:Dave)" style="ellipse;whiteSpace=wrap;html=1;" vertex="1" parent="iTom-UJpVvmiZ_75oO6J-1">
          <mxGeometry y="550" width="130" height="60" as="geometry" />
        </mxCell>
        <mxCell id="5X1X3crS44ORBH0vk_nt-20" style="edgeStyle=orthogonalEdgeStyle;rounded=0;orthogonalLoop=1;jettySize=auto;html=1;exitX=1;exitY=0.5;exitDx=0;exitDy=0;entryX=0;entryY=0.5;entryDx=0;entryDy=0;" edge="1" parent="iTom-UJpVvmiZ_75oO6J-1" source="5X1X3crS44ORBH0vk_nt-22" target="5X1X3crS44ORBH0vk_nt-23">
          <mxGeometry relative="1" as="geometry" />
        </mxCell>
        <mxCell id="5X1X3crS44ORBH0vk_nt-21" style="edgeStyle=orthogonalEdgeStyle;rounded=0;orthogonalLoop=1;jettySize=auto;html=1;exitX=0.5;exitY=1;exitDx=0;exitDy=0;entryX=0.5;entryY=0;entryDx=0;entryDy=0;" edge="1" parent="iTom-UJpVvmiZ_75oO6J-1" source="5X1X3crS44ORBH0vk_nt-22" target="5X1X3crS44ORBH0vk_nt-56">
          <mxGeometry relative="1" as="geometry" />
        </mxCell>
        <mxCell id="5X1X3crS44ORBH0vk_nt-22" value="&lt;div&gt;Session 1&lt;/div&gt;&lt;div&gt;{ profit:50, profitPrev:[0],&lt;br&gt;&lt;/div&gt;&lt;div&gt;fromSteve:10,&lt;/div&gt;&lt;div&gt;fromDave: 40}&lt;br&gt;&lt;/div&gt;" style="rounded=1;whiteSpace=wrap;html=1;" vertex="1" parent="iTom-UJpVvmiZ_75oO6J-1">
          <mxGeometry x="200" y="635" width="120" height="70" as="geometry" />
        </mxCell>
        <mxCell id="5X1X3crS44ORBH0vk_nt-23" value="Claim(session:1, investor:Dave) = 0" style="ellipse;whiteSpace=wrap;html=1;" vertex="1" parent="iTom-UJpVvmiZ_75oO6J-1">
          <mxGeometry x="390" y="640" width="130" height="60" as="geometry" />
        </mxCell>
        <mxCell id="5X1X3crS44ORBH0vk_nt-24" value="" style="verticalLabelPosition=bottom;verticalAlign=top;html=1;shape=mxgraph.basic.flash" vertex="1" parent="iTom-UJpVvmiZ_75oO6J-1">
          <mxGeometry x="340" y="635" width="20" height="70" as="geometry" />
        </mxCell>
        <mxCell id="5X1X3crS44ORBH0vk_nt-25" style="edgeStyle=orthogonalEdgeStyle;rounded=0;orthogonalLoop=1;jettySize=auto;html=1;exitX=0.5;exitY=1;exitDx=0;exitDy=0;entryX=0.5;entryY=0;entryDx=0;entryDy=0;" edge="1" parent="iTom-UJpVvmiZ_75oO6J-1" source="5X1X3crS44ORBH0vk_nt-26" target="5X1X3crS44ORBH0vk_nt-30">
          <mxGeometry relative="1" as="geometry" />
        </mxCell>
        <mxCell id="5X1X3crS44ORBH0vk_nt-26" value="&lt;div&gt;Session 2&lt;br&gt;&lt;/div&gt;&lt;div&gt;{ profit:0,&lt;br&gt;&lt;/div&gt;&lt;div&gt;profitPrev:[50],&lt;/div&gt;&lt;div&gt;fromSteve:10,&lt;/div&gt;&lt;div&gt;fromDave: 40}&lt;br&gt;&lt;/div&gt;" style="rounded=1;whiteSpace=wrap;html=1;" vertex="1" parent="iTom-UJpVvmiZ_75oO6J-1">
          <mxGeometry x="200" y="780" width="120" height="70" as="geometry" />
        </mxCell>
        <mxCell id="5X1X3crS44ORBH0vk_nt-27" value="Claim(session: 2, investor:Dave) = 40" style="ellipse;whiteSpace=wrap;html=1;" vertex="1" parent="iTom-UJpVvmiZ_75oO6J-1">
          <mxGeometry x="390" y="870" width="130" height="60" as="geometry" />
        </mxCell>
        <mxCell id="5X1X3crS44ORBH0vk_nt-28" style="edgeStyle=orthogonalEdgeStyle;rounded=0;orthogonalLoop=1;jettySize=auto;html=1;exitX=1;exitY=0.5;exitDx=0;exitDy=0;entryX=0;entryY=0.5;entryDx=0;entryDy=0;" edge="1" parent="iTom-UJpVvmiZ_75oO6J-1" source="5X1X3crS44ORBH0vk_nt-30" target="5X1X3crS44ORBH0vk_nt-27">
          <mxGeometry relative="1" as="geometry" />
        </mxCell>
        <mxCell id="5X1X3crS44ORBH0vk_nt-69" style="edgeStyle=orthogonalEdgeStyle;rounded=0;orthogonalLoop=1;jettySize=auto;html=1;exitX=0.5;exitY=1;exitDx=0;exitDy=0;entryX=0.5;entryY=0;entryDx=0;entryDy=0;fontSize=20;" edge="1" parent="iTom-UJpVvmiZ_75oO6J-1" source="5X1X3crS44ORBH0vk_nt-30" target="5X1X3crS44ORBH0vk_nt-68">
          <mxGeometry relative="1" as="geometry" />
        </mxCell>
        <mxCell id="5X1X3crS44ORBH0vk_nt-30" value="&lt;div&gt;Session 2&lt;br&gt;&lt;/div&gt;&lt;div&gt;{ profit:0,&lt;br&gt;&lt;/div&gt;&lt;div&gt;profitPrev:[50],&lt;/div&gt;&lt;div&gt;fromSteve:10,&lt;/div&gt;&lt;div&gt;fromDave: 40}&lt;br&gt;&lt;/div&gt;" style="rounded=1;whiteSpace=wrap;html=1;" vertex="1" parent="iTom-UJpVvmiZ_75oO6J-1">
          <mxGeometry x="200" y="865" width="120" height="70" as="geometry" />
        </mxCell>
        <mxCell id="5X1X3crS44ORBH0vk_nt-31" style="edgeStyle=orthogonalEdgeStyle;rounded=0;orthogonalLoop=1;jettySize=auto;html=1;exitX=0.5;exitY=1;exitDx=0;exitDy=0;entryX=0.5;entryY=1;entryDx=0;entryDy=0;" edge="1" parent="iTom-UJpVvmiZ_75oO6J-1" source="5X1X3crS44ORBH0vk_nt-32" target="5X1X3crS44ORBH0vk_nt-34">
          <mxGeometry relative="1" as="geometry">
            <Array as="points">
              <mxPoint x="260" y="1090" />
              <mxPoint x="620" y="1090" />
            </Array>
          </mxGeometry>
        </mxCell>
        <mxCell id="5X1X3crS44ORBH0vk_nt-32" value="&lt;div&gt;Session 3&lt;br&gt;&lt;/div&gt;&lt;div&gt;{ profit:0,&lt;br&gt;&lt;/div&gt;&lt;div&gt;profitPrev:[50, 150],&lt;/div&gt;&lt;div&gt;fromSteve:10,&lt;/div&gt;&lt;div&gt;fromDave: 40}&lt;br&gt;&lt;/div&gt;" style="rounded=1;whiteSpace=wrap;html=1;" vertex="1" parent="iTom-UJpVvmiZ_75oO6J-1">
          <mxGeometry x="200" y="1010" width="120" height="70" as="geometry" />
        </mxCell>
        <mxCell id="5X1X3crS44ORBH0vk_nt-33" style="edgeStyle=orthogonalEdgeStyle;rounded=0;orthogonalLoop=1;jettySize=auto;html=1;exitX=0.5;exitY=0;exitDx=0;exitDy=0;entryX=0.5;entryY=1;entryDx=0;entryDy=0;" edge="1" parent="iTom-UJpVvmiZ_75oO6J-1" source="5X1X3crS44ORBH0vk_nt-34" target="5X1X3crS44ORBH0vk_nt-39">
          <mxGeometry relative="1" as="geometry" />
        </mxCell>
        <mxCell id="5X1X3crS44ORBH0vk_nt-34" value="&lt;div&gt;Session 3&lt;br&gt;&lt;/div&gt;&lt;div&gt;{ profit:0,&lt;br&gt;&lt;/div&gt;&lt;div&gt;profitPrev:[50, 150],&lt;/div&gt;&lt;div&gt;fromSteve:35,&lt;/div&gt;&lt;div&gt;fromDave: 40}&lt;br&gt;&lt;/div&gt;" style="rounded=1;whiteSpace=wrap;html=1;" vertex="1" parent="iTom-UJpVvmiZ_75oO6J-1">
          <mxGeometry x="560" y="1010" width="120" height="70" as="geometry" />
        </mxCell>
        <mxCell id="5X1X3crS44ORBH0vk_nt-35" style="edgeStyle=orthogonalEdgeStyle;rounded=0;orthogonalLoop=1;jettySize=auto;html=1;exitX=1;exitY=0.5;exitDx=0;exitDy=0;" edge="1" parent="iTom-UJpVvmiZ_75oO6J-1" source="5X1X3crS44ORBH0vk_nt-36" target="5X1X3crS44ORBH0vk_nt-34">
          <mxGeometry relative="1" as="geometry" />
        </mxCell>
        <mxCell id="5X1X3crS44ORBH0vk_nt-36" value="Invest(amount:25, session:3, investor:Steve)" style="ellipse;whiteSpace=wrap;html=1;" vertex="1" parent="iTom-UJpVvmiZ_75oO6J-1">
          <mxGeometry x="400" y="1015" width="120" height="60" as="geometry" />
        </mxCell>
        <mxCell id="5X1X3crS44ORBH0vk_nt-37" style="edgeStyle=orthogonalEdgeStyle;rounded=0;orthogonalLoop=1;jettySize=auto;html=1;exitX=1;exitY=0.5;exitDx=0;exitDy=0;entryX=0;entryY=0.5;entryDx=0;entryDy=0;" edge="1" parent="iTom-UJpVvmiZ_75oO6J-1" source="5X1X3crS44ORBH0vk_nt-39" target="5X1X3crS44ORBH0vk_nt-40">
          <mxGeometry relative="1" as="geometry" />
        </mxCell>
        <mxCell id="5X1X3crS44ORBH0vk_nt-38" style="edgeStyle=orthogonalEdgeStyle;rounded=0;orthogonalLoop=1;jettySize=auto;html=1;exitX=0.5;exitY=0;exitDx=0;exitDy=0;entryX=0.5;entryY=1;entryDx=0;entryDy=0;" edge="1" parent="iTom-UJpVvmiZ_75oO6J-1" source="5X1X3crS44ORBH0vk_nt-39" target="5X1X3crS44ORBH0vk_nt-43">
          <mxGeometry relative="1" as="geometry" />
        </mxCell>
        <mxCell id="5X1X3crS44ORBH0vk_nt-39" value="&lt;div&gt;Session 3&lt;br&gt;&lt;/div&gt;&lt;div&gt;{ profit:0,&lt;br&gt;&lt;/div&gt;&lt;div&gt;profitPrev: [0],&lt;/div&gt;&lt;div&gt;fromSteve:30,&lt;/div&gt;&lt;div&gt;fromDave: 40}&lt;br&gt;&lt;/div&gt;" style="rounded=1;whiteSpace=wrap;html=1;" vertex="1" parent="iTom-UJpVvmiZ_75oO6J-1">
          <mxGeometry x="560" y="870" width="120" height="70" as="geometry" />
        </mxCell>
        <mxCell id="5X1X3crS44ORBH0vk_nt-40" value="&lt;div&gt;Claim(session:3, investor:Steve)= [10, 30]&lt;br&gt;&lt;/div&gt;" style="ellipse;whiteSpace=wrap;html=1;" vertex="1" parent="iTom-UJpVvmiZ_75oO6J-1">
          <mxGeometry x="720" y="875" width="130" height="60" as="geometry" />
        </mxCell>
        <mxCell id="5X1X3crS44ORBH0vk_nt-42" style="edgeStyle=orthogonalEdgeStyle;rounded=0;orthogonalLoop=1;jettySize=auto;html=1;exitX=0.5;exitY=0;exitDx=0;exitDy=0;entryX=0.5;entryY=1;entryDx=0;entryDy=0;" edge="1" parent="iTom-UJpVvmiZ_75oO6J-1" source="5X1X3crS44ORBH0vk_nt-43" target="5X1X3crS44ORBH0vk_nt-45">
          <mxGeometry relative="1" as="geometry" />
        </mxCell>
        <mxCell id="5X1X3crS44ORBH0vk_nt-43" value="addProfit(35)" style="rhombus;whiteSpace=wrap;html=1;" vertex="1" parent="iTom-UJpVvmiZ_75oO6J-1">
          <mxGeometry x="560" y="800" width="120" height="40" as="geometry" />
        </mxCell>
        <mxCell id="5X1X3crS44ORBH0vk_nt-44" style="edgeStyle=orthogonalEdgeStyle;rounded=0;orthogonalLoop=1;jettySize=auto;html=1;exitX=0.5;exitY=0;exitDx=0;exitDy=0;entryX=0.5;entryY=1;entryDx=0;entryDy=0;" edge="1" parent="iTom-UJpVvmiZ_75oO6J-1" source="5X1X3crS44ORBH0vk_nt-45" target="5X1X3crS44ORBH0vk_nt-60">
          <mxGeometry relative="1" as="geometry" />
        </mxCell>
        <mxCell id="5X1X3crS44ORBH0vk_nt-45" value="&lt;div&gt;Session 3&lt;br&gt;&lt;/div&gt;&lt;div&gt;{ profit:35,&lt;br&gt;&lt;/div&gt;&lt;div&gt;profitPrev:[0],&lt;/div&gt;&lt;div&gt;fromSteve:30,&lt;/div&gt;&lt;div&gt;fromDave: 40}&lt;br&gt;&lt;/div&gt;" style="rounded=1;whiteSpace=wrap;html=1;" vertex="1" parent="iTom-UJpVvmiZ_75oO6J-1">
          <mxGeometry x="560" y="710" width="120" height="70" as="geometry" />
        </mxCell>
        <mxCell id="5X1X3crS44ORBH0vk_nt-46" style="edgeStyle=orthogonalEdgeStyle;rounded=0;orthogonalLoop=1;jettySize=auto;html=1;exitX=1;exitY=0.5;exitDx=0;exitDy=0;entryX=0;entryY=0.5;entryDx=0;entryDy=0;" edge="1" parent="iTom-UJpVvmiZ_75oO6J-1" source="5X1X3crS44ORBH0vk_nt-48" target="5X1X3crS44ORBH0vk_nt-49">
          <mxGeometry relative="1" as="geometry" />
        </mxCell>
        <mxCell id="5X1X3crS44ORBH0vk_nt-47" style="edgeStyle=orthogonalEdgeStyle;rounded=0;orthogonalLoop=1;jettySize=auto;html=1;exitX=0.5;exitY=0;exitDx=0;exitDy=0;entryX=0.5;entryY=1;entryDx=0;entryDy=0;" edge="1" parent="iTom-UJpVvmiZ_75oO6J-1" source="5X1X3crS44ORBH0vk_nt-48" target="5X1X3crS44ORBH0vk_nt-51">
          <mxGeometry relative="1" as="geometry" />
        </mxCell>
        <mxCell id="5X1X3crS44ORBH0vk_nt-48" value="&lt;div&gt;Session 4&lt;br&gt;&lt;/div&gt;&lt;div&gt;{ profit:0,&lt;br&gt;&lt;/div&gt;&lt;div&gt;profitPrev: [35],&lt;/div&gt;&lt;div&gt;fromSteve:30,&lt;/div&gt;&lt;div&gt;fromDave: 40}&lt;br&gt;&lt;/div&gt;" style="rounded=1;whiteSpace=wrap;html=1;" vertex="1" parent="iTom-UJpVvmiZ_75oO6J-1">
          <mxGeometry x="560" y="430" width="120" height="70" as="geometry" />
        </mxCell>
        <mxCell id="5X1X3crS44ORBH0vk_nt-49" value="Claim(session:4, investor:Steve)=15" style="ellipse;whiteSpace=wrap;html=1;" vertex="1" parent="iTom-UJpVvmiZ_75oO6J-1">
          <mxGeometry x="720" y="435" width="130" height="60" as="geometry" />
        </mxCell>
        <mxCell id="5X1X3crS44ORBH0vk_nt-50" style="edgeStyle=orthogonalEdgeStyle;rounded=0;orthogonalLoop=1;jettySize=auto;html=1;exitX=1;exitY=0.5;exitDx=0;exitDy=0;entryX=0;entryY=0.5;entryDx=0;entryDy=0;" edge="1" parent="iTom-UJpVvmiZ_75oO6J-1" source="5X1X3crS44ORBH0vk_nt-51" target="5X1X3crS44ORBH0vk_nt-52">
          <mxGeometry relative="1" as="geometry" />
        </mxCell>
        <mxCell id="5X1X3crS44ORBH0vk_nt-51" value="&lt;div&gt;Session 4&lt;br&gt;&lt;/div&gt;&lt;div&gt;{ profit:0&lt;br&gt;&lt;/div&gt;&lt;div&gt;profitPrev:[35],&lt;/div&gt;&lt;div&gt;fromSteve:30,&lt;/div&gt;&lt;div&gt;fromDave: 40}&lt;br&gt;&lt;/div&gt;" style="rounded=1;whiteSpace=wrap;html=1;" vertex="1" parent="iTom-UJpVvmiZ_75oO6J-1">
          <mxGeometry x="560" y="320" width="120" height="70" as="geometry" />
        </mxCell>
        <mxCell id="5X1X3crS44ORBH0vk_nt-52" value="Claim(session: 4, investor:Dave) = 20" style="ellipse;whiteSpace=wrap;html=1;" vertex="1" parent="iTom-UJpVvmiZ_75oO6J-1">
          <mxGeometry x="720" y="325" width="130" height="60" as="geometry" />
        </mxCell>
        <mxCell id="5X1X3crS44ORBH0vk_nt-53" style="edgeStyle=orthogonalEdgeStyle;rounded=0;orthogonalLoop=1;jettySize=auto;html=1;exitX=0.5;exitY=0;exitDx=0;exitDy=0;entryX=0.5;entryY=1;entryDx=0;entryDy=0;" edge="1" parent="iTom-UJpVvmiZ_75oO6J-1" source="5X1X3crS44ORBH0vk_nt-54" target="5X1X3crS44ORBH0vk_nt-48">
          <mxGeometry relative="1" as="geometry" />
        </mxCell>
        <mxCell id="5X1X3crS44ORBH0vk_nt-54" value="&lt;div&gt;Session 4&lt;br&gt;&lt;/div&gt;&lt;div&gt;{ profit:0,&lt;br&gt;&lt;/div&gt;&lt;div&gt;profitPrev: [35],&lt;/div&gt;&lt;div&gt;fromSteve:30,&lt;/div&gt;&lt;div&gt;fromDave: 40}&lt;br&gt;&lt;/div&gt;" style="rounded=1;whiteSpace=wrap;html=1;" vertex="1" parent="iTom-UJpVvmiZ_75oO6J-1">
          <mxGeometry x="560" y="545" width="120" height="70" as="geometry" />
        </mxCell>
        <mxCell id="5X1X3crS44ORBH0vk_nt-55" style="edgeStyle=orthogonalEdgeStyle;rounded=0;orthogonalLoop=1;jettySize=auto;html=1;exitX=0.5;exitY=1;exitDx=0;exitDy=0;entryX=0.5;entryY=0;entryDx=0;entryDy=0;" edge="1" parent="iTom-UJpVvmiZ_75oO6J-1" source="5X1X3crS44ORBH0vk_nt-56" target="5X1X3crS44ORBH0vk_nt-26">
          <mxGeometry relative="1" as="geometry" />
        </mxCell>
        <mxCell id="5X1X3crS44ORBH0vk_nt-56" value="&lt;div&gt;newSession(2)&lt;/div&gt;&lt;div&gt;profitPrev.shift().&lt;/div&gt;&lt;div&gt;push(profit)&lt;br&gt;&lt;/div&gt;" style="shape=hexagon;perimeter=hexagonPerimeter2;whiteSpace=wrap;html=1;fixedSize=1;" vertex="1" parent="iTom-UJpVvmiZ_75oO6J-1">
          <mxGeometry x="200" y="720" width="120" height="40" as="geometry" />
        </mxCell>
        <mxCell id="5X1X3crS44ORBH0vk_nt-65" style="edgeStyle=orthogonalEdgeStyle;rounded=0;orthogonalLoop=1;jettySize=auto;html=1;exitX=1;exitY=0.5;exitDx=0;exitDy=0;entryX=0;entryY=0.5;entryDx=0;entryDy=0;fontSize=20;" edge="1" parent="iTom-UJpVvmiZ_75oO6J-1" source="5X1X3crS44ORBH0vk_nt-58" target="5X1X3crS44ORBH0vk_nt-32">
          <mxGeometry relative="1" as="geometry" />
        </mxCell>
        <mxCell id="5X1X3crS44ORBH0vk_nt-58" value="&lt;div&gt;newSession(3)&lt;/div&gt;&lt;div&gt;profitPrev.shift().&lt;/div&gt;&lt;div&gt;push(profit)&lt;br&gt;&lt;/div&gt;" style="shape=hexagon;perimeter=hexagonPerimeter2;whiteSpace=wrap;html=1;fixedSize=1;" vertex="1" parent="iTom-UJpVvmiZ_75oO6J-1">
          <mxGeometry x="60" y="1030" width="120" height="40" as="geometry" />
        </mxCell>
        <mxCell id="5X1X3crS44ORBH0vk_nt-59" style="edgeStyle=orthogonalEdgeStyle;rounded=0;orthogonalLoop=1;jettySize=auto;html=1;exitX=0.5;exitY=0;exitDx=0;exitDy=0;entryX=0.5;entryY=1;entryDx=0;entryDy=0;" edge="1" parent="iTom-UJpVvmiZ_75oO6J-1" source="5X1X3crS44ORBH0vk_nt-60" target="5X1X3crS44ORBH0vk_nt-54">
          <mxGeometry relative="1" as="geometry" />
        </mxCell>
        <mxCell id="5X1X3crS44ORBH0vk_nt-60" value="&lt;div&gt;newSession(4)&lt;/div&gt;&lt;div&gt;profitPrev.shift().&lt;/div&gt;&lt;div&gt;push(profit)&lt;br&gt;&lt;/div&gt;" style="shape=hexagon;perimeter=hexagonPerimeter2;whiteSpace=wrap;html=1;fixedSize=1;" vertex="1" parent="iTom-UJpVvmiZ_75oO6J-1">
          <mxGeometry x="560" y="650" width="120" height="40" as="geometry" />
        </mxCell>
        <mxCell id="5X1X3crS44ORBH0vk_nt-61" value="maxClaimableSession = 2" style="text;html=1;strokeColor=none;fillColor=none;align=center;verticalAlign=middle;whiteSpace=wrap;rounded=0;fontSize=20;" vertex="1" parent="iTom-UJpVvmiZ_75oO6J-1">
          <mxGeometry x="320" y="20" width="305" height="20" as="geometry" />
        </mxCell>
        <mxCell id="5X1X3crS44ORBH0vk_nt-62" style="edgeStyle=orthogonalEdgeStyle;rounded=0;orthogonalLoop=1;jettySize=auto;html=1;exitX=0.5;exitY=1;exitDx=0;exitDy=0;entryX=0.5;entryY=0;entryDx=0;entryDy=0;fontSize=20;" edge="1" parent="iTom-UJpVvmiZ_75oO6J-1" source="5X1X3crS44ORBH0vk_nt-63" target="5X1X3crS44ORBH0vk_nt-1">
          <mxGeometry relative="1" as="geometry" />
        </mxCell>
        <mxCell id="5X1X3crS44ORBH0vk_nt-63" value="&lt;div&gt;newSession(1)&lt;/div&gt;" style="shape=hexagon;perimeter=hexagonPerimeter2;whiteSpace=wrap;html=1;fixedSize=1;" vertex="1" parent="iTom-UJpVvmiZ_75oO6J-1">
          <mxGeometry x="200" y="20" width="120" height="40" as="geometry" />
        </mxCell>
        <mxCell id="5X1X3crS44ORBH0vk_nt-74" style="edgeStyle=orthogonalEdgeStyle;rounded=1;orthogonalLoop=1;jettySize=auto;html=1;exitX=0;exitY=0.5;exitDx=0;exitDy=0;entryX=1;entryY=0.5;entryDx=0;entryDy=0;fontSize=20;" edge="1" parent="iTom-UJpVvmiZ_75oO6J-1" source="5X1X3crS44ORBH0vk_nt-68" target="5X1X3crS44ORBH0vk_nt-73">
          <mxGeometry relative="1" as="geometry" />
        </mxCell>
        <mxCell id="5X1X3crS44ORBH0vk_nt-68" value="addProfit(150)" style="rhombus;whiteSpace=wrap;html=1;" vertex="1" parent="iTom-UJpVvmiZ_75oO6J-1">
          <mxGeometry x="200" y="950" width="120" height="30" as="geometry" />
        </mxCell>
        <mxCell id="5X1X3crS44ORBH0vk_nt-75" style="edgeStyle=orthogonalEdgeStyle;rounded=1;orthogonalLoop=1;jettySize=auto;html=1;exitX=0;exitY=0.5;exitDx=0;exitDy=0;entryX=0;entryY=0.5;entryDx=0;entryDy=0;fontSize=20;" edge="1" parent="iTom-UJpVvmiZ_75oO6J-1" source="5X1X3crS44ORBH0vk_nt-73" target="5X1X3crS44ORBH0vk_nt-58">
          <mxGeometry relative="1" as="geometry" />
        </mxCell>
        <mxCell id="5X1X3crS44ORBH0vk_nt-73" value="&lt;div&gt;Session 2&lt;br&gt;&lt;/div&gt;&lt;div&gt;{ profit:150,&lt;br&gt;&lt;/div&gt;&lt;div&gt;profitPrev:[50],&lt;/div&gt;&lt;div&gt;fromSteve:10,&lt;/div&gt;&lt;div&gt;fromDave: 40}&lt;br&gt;&lt;/div&gt;" style="rounded=1;whiteSpace=wrap;html=1;" vertex="1" parent="iTom-UJpVvmiZ_75oO6J-1">
          <mxGeometry x="60" y="930" width="120" height="70" as="geometry" />
        </mxCell>
      </root>
    </mxGraphModel>
  </diagram>
</mxfile>
